<svg width="341" height="251" viewBox="0 0 341 251" fill="none" xmlns="http://www.w3.org/2000/svg">
<g filter="url(#filter0_d_1_3677)">
<path d="M174.242 240.597C213.468 240.597 245.267 239.357 245.267 237.827C245.267 236.297 213.468 235.057 174.242 235.057C135.015 235.057 103.216 236.297 103.216 237.827C103.216 239.357 135.015 240.597 174.242 240.597Z" fill="#F9F0E3"/>
<path opacity="0.5" d="M49.2815 235.93C74.1822 235.93 94.3682 234.396 94.3682 232.505C94.3682 230.614 74.1822 229.081 49.2815 229.081C24.3808 229.081 4.19482 230.614 4.19482 232.505C4.19482 234.396 24.3808 235.93 49.2815 235.93Z" fill="#F9EAD4"/>
<path d="M332.659 240.604C332.659 241.76 317.31 242.691 298.373 242.691C279.437 242.691 264.088 241.76 264.088 240.604C264.088 239.448 279.437 238.518 298.373 238.518C317.303 238.518 332.659 239.448 332.659 240.604Z" fill="#F9F0E3"/>
<path d="M249.568 74.824L247.984 77.5575H251.144L249.568 74.824Z" fill="#E7CCA8"/>
<path d="M249.568 79.8403L247.984 82.5739H251.144L249.568 79.8403Z" fill="#E7CCA8"/>
<path d="M252.844 76.8814L251.376 79.8403H254.304L252.844 76.8814Z" fill="#E7CCA8"/>
<path d="M11.6184 91.1307L10.0349 93.8716H13.1947L11.6184 91.1307Z" fill="#E7CCA8"/>
<path d="M11.6184 96.1472L10.0349 98.8808H13.1947L11.6184 96.1472Z" fill="#E7CCA8"/>
<path d="M14.8945 93.1883L13.4272 96.1472H16.3546L14.8945 93.1883Z" fill="#E7CCA8"/>
<path d="M246.408 195.9L244.832 198.634H247.984L246.408 195.9Z" fill="#E7CCA8"/>
<path d="M246.408 200.909L244.832 203.65H247.984L246.408 200.909Z" fill="#E7CCA8"/>
<path d="M249.684 197.951L248.224 200.909H251.144L249.684 197.951Z" fill="#E7CCA8"/>
<path d="M184.142 55.5074C184.142 57.434 182.588 58.9898 180.663 58.9898C178.738 58.9898 177.183 57.434 177.183 55.5074C177.183 53.5808 178.738 52.025 180.663 52.025C182.58 52.025 184.142 53.5881 184.142 55.5074Z" stroke="white" stroke-miterlimit="10"/>
<path d="M334.482 203.636H262.374C261.306 203.636 260.442 202.771 260.442 201.702C260.442 200.633 261.306 199.768 262.374 199.768H334.482C335.55 199.768 336.414 200.633 336.414 201.702C336.414 202.771 335.55 203.636 334.482 203.636Z" fill="#FEE6C6"/>
<path d="M272.333 237.827C271.25 237.827 270.357 237.165 270.313 236.322L268.439 202.443H276.226L274.352 236.322C274.301 237.165 273.415 237.827 272.333 237.827Z" fill="#FEE6C6"/>
<path d="M325.221 237.827C324.138 237.827 323.245 237.165 323.201 236.322L321.327 202.443H329.114L327.24 236.322C327.189 237.165 326.303 237.827 325.221 237.827Z" fill="#FEE6C6"/>
<path d="M298.432 237.827C297.349 237.827 296.456 237.165 296.412 236.322L294.538 202.443H302.325L300.451 236.322C300.407 237.165 299.514 237.827 298.432 237.827Z" fill="#FEE6C6"/>
<path d="M314.608 192.997C315.646 188.366 312.736 183.77 308.109 182.732C303.482 181.693 298.89 184.606 297.852 189.237C296.815 193.868 299.724 198.464 304.352 199.502C308.979 200.541 313.571 197.628 314.608 192.997Z" fill="#F9D8AC"/>
<path d="M310.555 184.057H301.7C301.206 184.057 300.807 183.657 300.807 183.163C300.807 182.669 301.206 182.269 301.7 182.269H310.555C311.049 182.269 311.448 182.669 311.448 183.163C311.448 183.657 311.049 184.057 310.555 184.057Z" fill="#F9D8AC"/>
<path d="M302.311 167.99C302.623 168.136 302.993 168.688 303.117 169.451C303.24 170.215 303.08 170.869 302.819 171.095C302.514 170.956 302.136 170.397 302.013 169.633C301.889 168.87 302.071 168.223 302.311 167.99Z" fill="#F9D8AC"/>
<path d="M302.892 171.019L302.713 171.049L303.518 175.948L303.697 175.919L302.892 171.019Z" fill="#F9D8AC"/>
<path d="M304.889 170.884C304.555 170.862 304.003 171.174 303.596 171.792C303.189 172.418 303.081 173.079 303.219 173.414C303.545 173.443 304.105 173.123 304.512 172.505C304.926 171.887 305.013 171.218 304.889 170.884Z" fill="#F9D8AC"/>
<path d="M300.792 171.56C301.105 171.429 301.722 171.545 302.311 172.003C302.899 172.461 303.211 173.057 303.189 173.421C302.892 173.559 302.26 173.435 301.671 172.977C301.083 172.519 300.785 171.916 300.792 171.56Z" fill="#F9D8AC"/>
<path d="M301.185 173.959C301.497 173.828 302.114 173.952 302.703 174.402C303.291 174.86 303.603 175.457 303.582 175.82C303.284 175.958 302.652 175.835 302.063 175.377C301.475 174.919 301.177 174.315 301.185 173.959Z" fill="#F9D8AC"/>
<path d="M305.289 173.29C304.954 173.268 304.402 173.581 303.996 174.199C303.589 174.817 303.48 175.485 303.618 175.82C303.945 175.849 304.504 175.529 304.911 174.911C305.318 174.286 305.412 173.617 305.289 173.29Z" fill="#F9D8AC"/>
<path d="M303.676 175.811L303.497 175.84L304.302 180.74L304.481 180.71L303.676 175.811Z" fill="#F9D8AC"/>
<path d="M305.681 175.675C305.347 175.653 304.795 175.966 304.388 176.584C303.981 177.209 303.872 177.87 304.01 178.205C304.337 178.234 304.896 177.921 305.303 177.296C305.71 176.678 305.804 176.009 305.681 175.675Z" fill="#F9D8AC"/>
<path d="M301.577 176.351C301.889 176.22 302.507 176.336 303.095 176.794C303.683 177.252 303.996 177.849 303.974 178.212C303.676 178.35 303.044 178.227 302.456 177.769C301.867 177.311 301.57 176.707 301.577 176.351Z" fill="#F9D8AC"/>
<path d="M301.976 178.757C302.289 178.626 302.906 178.75 303.495 179.201C304.083 179.659 304.395 180.255 304.374 180.619C304.076 180.757 303.444 180.633 302.855 180.175C302.267 179.717 301.962 179.106 301.976 178.757Z" fill="#F9D8AC"/>
<path d="M306.073 178.081C305.739 178.059 305.187 178.372 304.78 178.99C304.374 179.608 304.265 180.277 304.403 180.611C304.729 180.64 305.289 180.32 305.696 179.702C306.11 179.084 306.197 178.408 306.073 178.081Z" fill="#F9D8AC"/>
<path d="M304.467 180.601L304.288 180.63L305.093 185.53L305.272 185.5L304.467 180.601Z" fill="#F9D8AC"/>
<path d="M309.996 171.531C310.243 171.749 310.417 172.316 310.293 172.978C310.17 173.639 309.814 174.119 309.494 174.221C309.247 174.01 309.073 173.436 309.189 172.774C309.32 172.12 309.691 171.647 309.996 171.531Z" fill="#F9D8AC"/>
<path d="M309.419 174.176L308.638 178.423L308.817 178.456L309.597 174.209L309.419 174.176Z" fill="#F9D8AC"/>
<path d="M311.521 174.715C311.209 174.592 310.599 174.672 310.01 175.042C309.429 175.421 309.117 175.929 309.146 176.242C309.444 176.373 310.068 176.286 310.657 175.915C311.238 175.537 311.528 175.021 311.521 174.715Z" fill="#F9D8AC"/>
<path d="M307.432 173.959C307.766 173.952 308.31 174.243 308.724 174.803C309.139 175.362 309.247 175.951 309.109 176.235C308.783 176.249 308.231 175.951 307.817 175.391C307.402 174.832 307.315 174.243 307.432 173.959Z" fill="#F9D8AC"/>
<path d="M307.054 176.046C307.388 176.038 307.933 176.329 308.347 176.889C308.761 177.449 308.87 178.038 308.732 178.321C308.405 178.336 307.853 178.038 307.439 177.478C307.025 176.918 306.93 176.329 307.054 176.046Z" fill="#F9D8AC"/>
<path d="M311.136 176.794C310.824 176.671 310.214 176.751 309.625 177.122C309.044 177.5 308.732 178.008 308.761 178.321C309.059 178.452 309.683 178.365 310.272 177.994C310.853 177.623 311.151 177.1 311.136 176.794Z" fill="#F9D8AC"/>
<path d="M308.66 178.332L307.879 182.579L308.058 182.612L308.838 178.364L308.66 178.332Z" fill="#F9D8AC"/>
<path d="M310.758 178.866C310.446 178.743 309.836 178.823 309.247 179.193C308.666 179.571 308.354 180.08 308.383 180.393C308.681 180.524 309.306 180.437 309.894 180.066C310.475 179.695 310.766 179.179 310.758 178.866Z" fill="#F9D8AC"/>
<path d="M306.669 178.118C307.003 178.11 307.548 178.401 307.962 178.961C308.376 179.521 308.485 180.11 308.347 180.393C308.02 180.408 307.468 180.11 307.054 179.55C306.64 178.99 306.553 178.401 306.669 178.118Z" fill="#F9D8AC"/>
<path d="M307.891 182.484L307.111 186.731L307.289 186.764L308.07 182.517L307.891 182.484Z" fill="#F9D8AC"/>
<path d="M316.083 130.338C316.461 130.578 316.86 131.342 316.904 132.352C316.954 133.355 316.642 134.177 316.279 134.431C315.901 134.213 315.502 133.428 315.451 132.418C315.407 131.414 315.741 130.607 316.083 130.338Z" fill="#FEE6C6"/>
<path d="M316.394 134.336L316.155 134.348L316.467 140.803L316.706 140.791L316.394 134.336Z" fill="#FEE6C6"/>
<path d="M318.988 134.468C318.56 134.388 317.804 134.708 317.18 135.45C316.555 136.191 316.322 137.042 316.453 137.492C316.875 137.587 317.637 137.252 318.262 136.511C318.879 135.769 319.097 134.919 318.988 134.468Z" fill="#FEE6C6"/>
<path d="M313.591 134.73C314.013 134.613 314.797 134.853 315.487 135.529C316.177 136.206 316.497 137.027 316.41 137.492C316.003 137.623 315.204 137.369 314.514 136.693C313.816 136.017 313.519 135.188 313.591 134.73Z" fill="#FEE6C6"/>
<path d="M313.744 137.892C314.165 137.776 314.949 138.016 315.64 138.692C316.33 139.368 316.649 140.189 316.562 140.655C316.155 140.786 315.356 140.531 314.666 139.855C313.969 139.179 313.678 138.35 313.744 137.892Z" fill="#FEE6C6"/>
<path d="M319.141 137.63C318.712 137.55 317.957 137.87 317.332 138.612C316.707 139.353 316.475 140.204 316.606 140.655C317.027 140.749 317.79 140.415 318.414 139.673C319.032 138.932 319.25 138.081 319.141 137.63Z" fill="#FEE6C6"/>
<path d="M316.687 140.682L316.448 140.693L316.759 147.149L316.998 147.137L316.687 140.682Z" fill="#FEE6C6"/>
<path d="M319.293 140.785C318.865 140.705 318.109 141.025 317.485 141.767C316.86 142.508 316.628 143.359 316.758 143.81C317.18 143.904 317.942 143.57 318.567 142.828C319.184 142.087 319.402 141.229 319.293 140.785Z" fill="#FEE6C6"/>
<path d="M313.896 141.047C314.318 140.931 315.102 141.171 315.792 141.847C316.482 142.523 316.802 143.344 316.715 143.81C316.308 143.941 315.509 143.686 314.819 143.01C314.121 142.327 313.824 141.498 313.896 141.047Z" fill="#FEE6C6"/>
<path d="M314.049 144.21C314.47 144.093 315.255 144.333 315.945 145.009C316.635 145.685 316.954 146.507 316.867 146.972C316.46 147.103 315.661 146.849 314.971 146.173C314.274 145.496 313.976 144.668 314.049 144.21Z" fill="#FEE6C6"/>
<path d="M319.446 143.948C319.017 143.868 318.262 144.188 317.637 144.929C317.013 145.671 316.78 146.522 316.911 146.972C317.332 147.067 318.095 146.732 318.72 145.991C319.337 145.249 319.555 144.399 319.446 143.948Z" fill="#FEE6C6"/>
<path d="M317.005 146.971L316.766 146.983L317.078 153.438L317.317 153.426L317.005 146.971Z" fill="#FEE6C6"/>
<path d="M321.502 199.681H314.746C312.051 199.681 309.923 197.376 310.141 194.686L313.649 151.538H322.591L326.1 194.686C326.325 197.376 324.196 199.681 321.502 199.681Z" fill="#FEE6C6"/>
<path d="M323.514 151.669H312.734C312.102 151.669 311.594 151.16 311.594 150.527C311.594 149.895 312.102 149.386 312.734 149.386H323.514C324.146 149.386 324.654 149.895 324.654 150.527C324.654 151.153 324.146 151.669 323.514 151.669Z" fill="#FEE6C6"/>
<path d="M319.475 160.226C319.577 156.605 319.758 152.985 319.947 149.372C320.136 145.758 320.39 142.145 320.615 138.532C320.891 134.919 321.138 131.305 321.451 127.7L321.93 122.291C322.119 120.488 322.279 118.685 322.482 116.882C322.439 118.692 322.351 120.502 322.286 122.312L322.01 127.736C321.821 131.349 321.567 134.962 321.342 138.576C321.058 142.189 320.819 145.802 320.506 149.408C320.194 153.014 319.874 156.62 319.475 160.226Z" fill="#FEE6C6"/>
<path d="M319.816 156.082C319.271 148.848 319.061 141.607 318.93 134.366C318.828 127.125 318.814 119.884 319.133 112.636C319.678 119.869 319.889 127.11 320.02 134.352C320.114 141.593 320.129 148.834 319.816 156.082Z" fill="#FEE6C6"/>
<path d="M318.894 162.872C319.344 159.273 319.867 155.689 320.412 152.112C320.949 148.528 321.552 144.959 322.119 141.382C322.744 137.812 323.339 134.242 323.993 130.68L324.988 125.337C325.344 123.563 325.678 121.782 326.056 120.008C325.838 121.803 325.577 123.599 325.337 125.395L324.545 130.767C324.008 134.352 323.405 137.921 322.838 141.498C322.213 145.068 321.618 148.637 320.964 152.2C320.303 155.769 319.642 159.324 318.894 162.872Z" fill="#FEE6C6"/>
<path d="M317.557 112.745C317.557 113.167 317.216 113.508 316.795 113.508C316.373 113.508 316.032 113.167 316.032 112.745C316.032 112.323 316.373 111.981 316.795 111.981C317.216 111.981 317.557 112.323 317.557 112.745Z" stroke="#FEE6C6" stroke-miterlimit="10"/>
<path d="M321.647 110.876C322.658 110.876 323.477 110.056 323.477 109.044C323.477 108.033 322.658 107.212 321.647 107.212C320.636 107.212 319.816 108.033 319.816 109.044C319.816 110.056 320.636 110.876 321.647 110.876Z" stroke="#FEE6C6" stroke-miterlimit="10"/>
<path d="M325.33 118.481C325.663 118.481 325.932 118.211 325.932 117.877C325.932 117.544 325.663 117.274 325.33 117.274C324.997 117.274 324.727 117.544 324.727 117.877C324.727 118.211 324.997 118.481 325.33 118.481Z" stroke="#FEE6C6" stroke-miterlimit="10"/>
<path d="M327.393 130.906C327.393 131.218 327.138 131.473 326.826 131.473C326.514 131.473 326.259 131.218 326.259 130.906C326.259 130.593 326.514 130.339 326.826 130.339C327.138 130.339 327.393 130.593 327.393 130.906Z" stroke="#FEE6C6" stroke-miterlimit="10"/>
<path d="M312.894 126.115C313.439 126.115 313.882 125.672 313.882 125.126C313.882 124.58 313.439 124.137 312.894 124.137C312.348 124.137 311.906 124.58 311.906 125.126C311.906 125.672 312.348 126.115 312.894 126.115Z" stroke="#FEE6C6" stroke-miterlimit="10"/>
<path d="M289.163 171.095H263.986V198.547H289.163V171.095Z" fill="#F9D8AC"/>
<path d="M286.344 174.17H266.812V195.471H286.344V174.17Z" fill="#FEE6C6"/>
<path d="M35.5457 45.8306H31.4924V225.213H35.5457V45.8306Z" fill="#FEE6C6"/>
<path d="M54.199 231.764H12.8459C12.8459 227.336 22.1074 223.752 33.5261 223.752C44.9449 223.752 54.199 227.336 54.199 231.764Z" fill="#FEE6C6"/>
<path d="M61.9642 48.2953H5.07373L6.12699 44.6021L6.33764 43.8751L8.24803 37.1866L8.45868 36.4596L18.875 0H49.6157L58.9352 36.4596L59.124 37.1866L60.831 43.8751L61.0199 44.6021L61.9642 48.2953Z" fill="#FEE6C6"/>
<path d="M8.80737 38.8223L6.86792 42.181H10.7396L8.80737 38.8223Z" fill="#E5CAA6"/>
<path d="M13.1946 42.181L11.2551 38.8223H15.134L13.1946 42.181Z" fill="#E5CAA6"/>
<path d="M17.0662 38.8223L15.134 42.181H19.0057L17.0662 38.8223Z" fill="#E5CAA6"/>
<path d="M21.4609 42.181L19.5215 38.8223H23.3931L21.4609 42.181Z" fill="#E5CAA6"/>
<path d="M25.3325 38.8223L23.3931 42.181H27.2647L25.3325 38.8223Z" fill="#E5CAA6"/>
<path d="M29.72 42.181L27.7805 38.8223H31.6594L29.72 42.181Z" fill="#E5CAA6"/>
<path d="M33.5916 38.8223L31.6594 42.181H35.5311L33.5916 38.8223Z" fill="#E5CAA6"/>
<path d="M37.9788 42.181L36.0466 38.8223H39.9183L37.9788 42.181Z" fill="#E5CAA6"/>
<path d="M41.8579 38.8223L39.9185 42.181H43.7901L41.8579 38.8223Z" fill="#E5CAA6"/>
<path d="M46.2451 42.181L44.3057 38.8223H48.1773L46.2451 42.181Z" fill="#E5CAA6"/>
<path d="M50.1169 38.8223L48.1775 42.181H52.0564L50.1169 38.8223Z" fill="#E5CAA6"/>
<path d="M54.5042 42.181L52.572 38.8223H56.4436L54.5042 42.181Z" fill="#E5CAA6"/>
<path d="M58.3758 38.8223L56.4436 42.181H60.3152L58.3758 38.8223Z" fill="#E5CAA6"/>
<path d="M59.124 37.1865H8.24805L8.4587 36.4595H58.9352L59.124 37.1865Z" fill="#E5CAA6"/>
<path d="M61.0199 44.6021H6.12695L6.3376 43.8751H60.831L61.0199 44.6021Z" fill="#E5CAA6"/>
<path d="M68.3848 154.707C69.8666 148.964 73.0555 143.831 76.3315 138.887C79.237 134.496 82.2806 130.127 86.1159 126.521C89.9512 122.908 94.6799 120.065 99.8809 119.265C98.6097 123.366 97.3385 127.466 96.0673 131.566C94.7962 135.667 93.4814 139.854 90.9754 143.337C88.3531 146.972 84.5541 149.632 80.5009 151.537C76.4404 153.442 72.0966 154.642 67.7747 155.834" fill="#66A986"/>
<path d="M68.6541 154.781C70.8406 147.009 75.5911 139.942 80.3853 133.523C82.8622 130.2 85.5862 127.074 88.884 124.552C90.4457 123.352 98.4141 118.067 99.2059 120.56C99.5546 121.665 97.6224 125.657 97.2955 126.711C96.6853 128.681 96.0897 130.651 95.465 132.614C94.2955 136.3 93.0244 140.03 90.7508 143.199C85.4046 150.622 76.0778 153.261 67.7098 155.573C67.3757 155.668 67.5137 156.191 67.8551 156.097C76.0342 153.836 84.9106 151.291 90.4965 144.413C96.0098 137.63 97.6296 127.467 100.15 119.339C100.216 119.128 100.005 118.968 99.8161 119.004C91.9493 120.444 85.8549 125.613 81.039 131.771C75.7291 138.561 70.4846 146.267 68.1311 154.643C68.0295 154.97 68.5525 155.115 68.6541 154.781Z" fill="#66A986"/>
<path d="M59.6689 174.01C65.4074 161.738 71.1385 149.459 76.877 137.187C77.1748 136.554 76.2305 136.002 75.9327 136.634C70.1942 148.906 64.4631 161.186 58.7246 173.457C58.4341 174.09 59.3711 174.643 59.6689 174.01Z" fill="#80B996"/>
<path d="M60.497 147.598C60.8312 134.737 65.6834 121.738 68.9158 109.372C69.003 109.03 68.48 108.884 68.3928 109.226C65.1459 121.658 60.2937 134.664 59.9595 147.598C59.945 147.947 60.4898 147.947 60.497 147.598Z" fill="#80B996"/>
<path d="M51.8383 150.288C46.3614 145.417 40.8409 140.495 36.5479 134.548C32.2623 128.601 29.2478 121.469 29.4875 114.141C32.9814 119.688 40.3614 121.76 44.0006 127.212C45.1992 129.008 45.9183 131.08 46.6229 133.123C48.5987 138.845 50.5817 144.573 52.5575 150.295" fill="#66A986"/>
<path d="M52.0272 150.099C46.2815 144.988 40.4414 139.812 36.0758 133.414C33.9039 130.23 32.1243 126.747 31.0057 123.054C30.4246 121.135 30.0323 119.172 29.8434 117.18C29.6836 115.464 29.1752 114.846 30.4463 115.9C32.2478 117.398 33.795 119.012 35.7272 120.379C38.3785 122.247 41.1823 123.999 43.1799 126.609C45.7585 129.975 46.8045 134.512 48.1774 138.481C49.5503 142.443 50.9159 146.406 52.2887 150.368C52.405 150.695 52.9279 150.557 52.8117 150.222C51.2863 145.817 49.7682 141.418 48.2428 137.013C47.0442 133.537 46.1072 129.706 43.9353 126.674C40.1581 121.396 33.4027 119.39 29.7127 113.995C29.5674 113.777 29.2042 113.85 29.2042 114.134C29.088 129.735 40.8336 140.858 51.635 150.477C51.9037 150.717 52.296 150.331 52.0272 150.099Z" fill="#66A986"/>
<path d="M41.1897 123.556C50.146 141.811 56.0297 161.375 58.6229 181.549C58.7101 182.233 59.7997 182.247 59.7125 181.549C57.0975 161.178 51.1775 141.447 42.1267 123.003C41.8217 122.37 40.8774 122.923 41.1897 123.556Z" fill="#80B996"/>
<path d="M57.3512 107.197C52.8694 91.4715 53.0002 74.4595 57.7289 58.7997C61.0195 63.5325 63.54 68.8034 65.1671 74.3286C66.9831 80.4864 67.6877 87.0368 66.6199 93.369C65.5521 99.7013 62.632 105.801 57.9469 110.185" fill="#66A986"/>
<path d="M57.6133 107.125C55.3179 98.8226 54.1847 90.2657 54.3808 81.6506C54.4898 77.0341 54.9547 72.4321 55.7973 67.8883C56.1605 65.9327 56.5963 63.9915 57.0903 62.065C57.9401 58.7861 58.5358 60.4074 59.7997 62.5884C68.204 77.0414 70.6664 97.3468 57.744 109.997C57.4898 110.244 57.8748 110.629 58.129 110.382C72.4533 96.3581 68.1676 73.7408 57.9547 58.6625C57.8239 58.4735 57.5261 58.4953 57.4535 58.728C52.7973 74.5986 52.6738 91.3271 57.0757 107.27C57.1847 107.605 57.7077 107.46 57.6133 107.125Z" fill="#66A986"/>
<path d="M70.0272 150.288C68.8359 142.378 71.3782 134.264 75.4968 127.409C79.6154 120.553 85.2449 114.751 90.8236 109.022C92.1819 119.942 89.8647 131.291 84.3369 140.8C82.8188 143.417 81.0174 145.94 78.6058 147.765C76.1942 149.59 73.0852 150.666 70.1143 150.128" fill="#80B996"/>
<path d="M70.3032 150.288C69.2645 142.022 71.7487 134.024 76.0635 127.009C78.2571 123.446 80.8721 120.168 83.6397 117.034C84.8963 115.617 86.1893 114.221 87.4968 112.847C88.0561 112.258 88.6081 111.516 89.2473 111.022C90.228 110.266 90.1045 109.735 90.7292 110.84C91.3248 111.88 90.9253 114.541 90.9108 115.726C90.889 117.558 90.7728 119.39 90.5621 121.215C90.0827 125.228 89.1311 129.212 87.7074 132.999C84.8963 140.495 79.6155 150.942 70.0998 149.859C69.7512 149.822 69.7584 150.368 70.0998 150.404C78.8165 151.4 83.9883 142.959 87.0464 136.038C90.8091 127.54 92.1093 118.234 91.0778 109.023C91.056 108.804 90.7945 108.645 90.6129 108.826C79.6736 120.08 67.6083 133.319 69.7439 150.288C69.802 150.629 70.3468 150.637 70.3032 150.288Z" fill="#80B996"/>
<path d="M61.5567 136.147C60.8812 126.477 62.8279 116.764 66.0095 107.604C69.1911 98.4437 73.5929 89.7705 77.9803 81.1191C80.8931 91.0137 81.8229 101.65 79.3677 111.668C76.9125 121.686 70.8472 131.007 61.9781 136.256" fill="#80B996"/>
<path d="M61.8334 136.147C61.2596 126.18 63.1917 116.387 66.5113 107.023C68.2764 102.043 70.3975 97.1941 72.6711 92.4249C73.7606 90.1275 74.8938 87.852 76.0342 85.5837C76.165 85.322 77.3199 82.4794 77.5959 82.4939C78.5112 82.5303 78.5693 84.3042 78.7582 85.0966C83.1528 103.701 79.1286 125.38 61.8407 136.024C61.5428 136.205 61.8189 136.678 62.1167 136.496C81.0899 124.82 83.8937 100.895 78.2497 81.0472C78.1916 80.829 77.8574 80.7636 77.7485 80.9817C69.0101 98.2191 60.1409 116.285 61.2886 136.147C61.3104 136.496 61.8552 136.504 61.8334 136.147Z" fill="#80B996"/>
<path d="M55.6811 101.331C60.0322 126.682 60.7949 152.483 57.9838 178.052C57.9039 178.75 59.0007 178.743 59.0733 178.052C61.8917 152.389 61.0927 126.485 56.7344 101.04C56.6109 100.349 55.5649 100.64 55.6811 101.331Z" fill="#80B996"/>
<path d="M57.4961 109.596C53.3194 106.106 49.6802 100.181 48.6996 94.8305C47.719 89.4797 48.0096 83.9762 48.3437 78.5454C48.6851 73.1147 49.0701 67.633 48.2856 62.2458C52.3606 67.7348 55.7891 73.7035 58.484 79.9922C60.5252 84.7541 62.1595 89.7777 62.3411 94.9541C62.5227 100.13 61.1281 105.51 57.7068 109.4" fill="#80B996"/>
<path d="M57.6931 109.408C50.9377 103.446 48.3445 95.5582 48.3082 86.7251C48.2936 82.632 48.6641 78.5535 48.8675 74.4749C48.9692 72.432 49.0418 70.3891 49.0128 68.3462C49.0055 67.7573 48.4462 63.6425 48.8094 63.4244C50.1169 62.6392 59.3637 82.8137 59.8795 84.2968C62.7705 92.5775 63.3952 102.05 57.5187 109.212C57.3008 109.481 57.6785 109.866 57.9037 109.597C69.5477 95.4056 57.4824 74.3804 48.5188 62.1157C48.3808 61.9267 47.974 61.9558 48.0103 62.2539C49.2234 71.7704 47.1605 81.2725 47.9087 90.7963C48.4898 98.2191 51.6931 104.849 57.3008 109.793C57.5696 110.026 57.9546 109.64 57.6931 109.408Z" fill="#80B996"/>
<path d="M51.3582 146.928C53.4647 139.52 52.2226 129.422 48.6924 122.573C45.1621 115.732 39.6634 110.069 33.5618 105.372C33.8959 113.267 34.5061 121.272 37.1356 128.724C39.7724 136.183 44.305 143.373 51.3582 146.928Z" fill="#80B996"/>
<path d="M51.6204 147.002C56.0223 130.128 46.6083 115.246 33.7586 105.184C33.5915 105.053 33.2792 105.118 33.2937 105.38C33.962 120.466 36.4026 139.23 51.2209 147.169C51.5332 147.336 51.802 146.863 51.4969 146.696C44.7633 143.09 40.4413 136.685 37.7755 129.67C36.4026 126.056 35.5237 122.269 34.9426 118.452C34.5503 115.864 34.3034 113.261 34.1218 110.651C34.0637 109.8 33.8966 108.863 33.962 108.012C34.0564 106.776 33.5843 106.42 34.8046 106.703C36.0322 106.987 38.037 109.466 38.9305 110.317C40.2525 111.574 41.5164 112.897 42.7077 114.279C45.3662 117.361 47.7124 120.793 49.3032 124.551C52.2378 131.458 53.0005 139.579 51.0974 146.856C51.0102 147.198 51.5332 147.343 51.6204 147.002Z" fill="#80B996"/>
<path d="M82.1432 204.835C82.1432 217.136 77.3709 227.853 70.3177 233.429H48.0758C41.0226 227.853 36.2502 217.136 36.2502 204.835C36.2502 193.341 40.4197 183.229 46.7174 177.398H71.6688C77.9738 183.229 82.1432 193.334 82.1432 204.835Z" fill="#FEE6C6"/>
<path d="M48.853 189.27L42.8821 199.63H54.8311L48.853 189.27Z" stroke="#E6CAA6" stroke-miterlimit="10"/>
<path d="M48.853 191.8L45.0613 198.372H52.6447L48.853 191.8Z" stroke="#E6CAA6" stroke-width="0.5" stroke-miterlimit="10"/>
<path d="M57.4825 223.287L50.2622 227.46V219.121L57.4825 223.287Z" stroke="#E6CAA6" stroke-width="0.75" stroke-miterlimit="10"/>
<path d="M55.0854 223.287L51.4607 225.381V221.193L55.0854 223.287Z" stroke="#E6CAA6" stroke-width="0.5" stroke-miterlimit="10"/>
<path d="M67.6082 180.444L61.8262 190.47H73.3975L67.6082 180.444Z" stroke="#E6CAA6" stroke-miterlimit="10"/>
<path d="M67.6082 184.247L65.1167 188.565H70.107L67.6082 184.247Z" stroke="#E6CAA6" stroke-width="0.5" stroke-miterlimit="10"/>
<path d="M67.6084 224.472L60.9692 209.197H74.2548L67.6084 224.472Z" stroke="#E6CAA6" stroke-miterlimit="10"/>
<path d="M67.6083 220.75L63.3953 211.059H71.8286L67.6083 220.75Z" stroke="#E6CAA6" stroke-width="0.5" stroke-miterlimit="10"/>
<path d="M45.5916 211.56C45.5916 210.543 46.4196 209.714 47.4366 209.714C48.4535 209.714 49.2816 210.543 49.2816 211.56C49.2816 212.578 48.4535 213.407 47.4366 213.407C46.4196 213.407 45.5916 212.578 45.5916 211.56Z" stroke="#E6CAA6" stroke-miterlimit="10"/>
<path d="M67.6082 202.254C69.245 202.254 70.5718 200.926 70.5718 199.288C70.5718 197.65 69.245 196.322 67.6082 196.322C65.9714 196.322 64.6445 197.65 64.6445 199.288C64.6445 200.926 65.9714 202.254 67.6082 202.254Z" stroke="#E6CAA6" stroke-miterlimit="10"/>
<path d="M55.6664 184.894C56.3043 184.894 56.8214 184.376 56.8214 183.738C56.8214 183.099 56.3043 182.582 55.6664 182.582C55.0286 182.582 54.5115 183.099 54.5115 183.738C54.5115 184.376 55.0286 184.894 55.6664 184.894Z" stroke="#E6CAA6" stroke-miterlimit="10"/>
<g opacity="0.25">
<path opacity="0.25" d="M73.3396 179.114C69.359 198.794 60.2356 217.42 47.0735 232.571C47.4004 232.862 47.7345 233.16 48.0759 233.429H70.3178C77.371 227.853 82.1434 217.136 82.1434 204.835C82.1434 194.388 78.7003 185.097 73.3396 179.114Z" fill="#FEE6C6"/>
</g>
<path d="M71.6325 177.398H46.7611C46.0057 177.398 45.3955 176.787 45.3955 176.031V175.748C45.3955 174.992 46.0057 174.381 46.7611 174.381H71.6325C72.388 174.381 72.9981 174.992 72.9981 175.748V176.031C73.0054 176.787 72.388 177.398 71.6325 177.398Z" fill="#F9D8AC"/>
<path d="M73.2158 144.85C73.9131 142.48 74.7921 140.16 75.7727 137.885C76.746 135.609 77.8647 133.392 79.0632 131.225C80.2835 129.066 81.591 126.965 83.0293 124.951C83.7557 123.948 84.4893 122.952 85.252 121.978C86.0365 121.018 86.8137 120.066 87.6491 119.15C87.3004 119.659 86.9445 120.168 86.5813 120.662L85.5353 122.189C84.838 123.207 84.1552 124.232 83.4942 125.264C82.1721 127.343 80.8937 129.437 79.6952 131.582C78.4821 133.719 77.3635 135.907 76.2739 138.118C75.1916 140.335 74.1964 142.589 73.2158 144.85Z" fill="#66A986"/>
<path d="M55.7683 103.345C55.3688 101.113 55.0492 98.8734 54.7441 96.6342C54.4317 94.395 54.1702 92.1486 53.9087 89.9094C53.669 87.6629 53.4293 85.4165 53.2405 83.1627L52.9644 79.7821C52.8991 78.6553 52.8119 77.5211 52.7683 76.3943C52.9717 77.5066 53.1315 78.6262 53.3204 79.7458L53.7925 83.1046C54.1049 85.3438 54.3664 87.5902 54.6279 89.8367C54.8676 92.0831 55.1073 94.3296 55.2961 96.5906C55.4923 98.8298 55.6666 101.084 55.7683 103.345Z" fill="#66A986"/>
<path d="M38.72 116.031C39.9548 117.957 41.0517 119.964 42.0831 122.007C43.1219 124.05 44.0371 126.143 44.8942 128.274C45.7296 130.404 46.4996 132.563 47.1533 134.759C47.4729 135.856 47.7853 136.961 48.0685 138.066C48.33 139.179 48.5988 140.291 48.8095 141.418L47.7271 138.168C47.3712 137.085 47.0008 136.009 46.623 134.933C45.8531 132.788 45.0686 130.651 44.226 128.543C43.3979 126.427 42.4972 124.333 41.5892 122.247C40.6594 120.16 39.6933 118.103 38.72 116.031Z" fill="#66A986"/>
<path d="M64.8335 126.885C65.9739 124.115 67.1071 121.353 68.1749 118.561C69.2427 115.769 70.2959 112.978 71.2402 110.149C72.2426 107.336 73.1361 104.486 74.0077 101.636C74.4436 100.211 74.8649 98.779 75.2789 97.3395L76.5065 93.0211C76.2523 94.4969 75.9327 95.9582 75.6203 97.4268C75.2789 98.8881 74.9157 100.342 74.5453 101.789C73.7753 104.69 72.8746 107.547 71.923 110.389C70.9206 113.21 69.8673 116.024 68.6833 118.779C67.5066 121.52 66.2427 124.239 64.8335 126.885Z" fill="#66A986"/>
<path d="M200.936 97.652H145.927C132.605 97.652 121.804 108.463 121.804 121.796V180.822H225.067V121.796C225.067 108.463 214.265 97.652 200.936 97.652Z" fill="#5C6193"/>
<path d="M212.842 167.83H134.021V180.822H212.842V167.83Z" fill="#4E5567"/>
<path d="M212.842 180.822H127.913V213.843H212.842V180.822Z" fill="#8E97FD"/>
<path d="M219.568 218.736H127.303C124.6 218.736 122.414 216.548 122.414 213.843H224.457C224.457 216.548 222.263 218.736 219.568 218.736Z" fill="#3F414E"/>
<path d="M124.862 234.025H121.804L127.302 218.736H131.581L124.862 234.025Z" fill="#3F414E"/>
<path d="M222.009 234.025H225.067L219.568 218.736H215.29L222.009 234.025Z" fill="#3F414E"/>
<path d="M113.044 107.125C110.087 105.155 107.603 102.349 106.433 98.9897C105.264 95.631 105.526 91.7051 107.509 88.7534C109.492 85.8018 113.276 84.0424 116.741 84.8348C116.886 80.1529 121.186 76.7432 125.349 74.5985C129.932 72.2357 134.719 70.869 139.404 73.0136C142.012 74.2132 144.758 76.1616 146.138 78.6843C147.518 81.1998 148.339 83.977 149.138 86.7396C152.414 84.7912 156.874 85.0893 159.866 87.4521C162.859 89.8149 164.174 94.0897 163.041 97.732C166.745 96.1617 171.234 95.4637 174.641 97.6084C178.222 99.8622 179.457 104.493 179.704 108.724C179.915 112.359 179.551 116.213 177.488 119.208C175.048 122.756 170.726 124.428 166.636 125.773C159.561 128.092 152.276 130.033 144.83 130.251C137.385 130.469 129.714 128.855 123.612 124.588C117.504 120.32 113.196 113.166 113.414 105.715" fill="#4E5567"/>
<path d="M109.143 112.417C105.438 112.614 101.923 114.962 100.317 118.314C98.712 121.665 99.0752 125.874 101.233 128.892C98.1527 128.935 95.1673 130.767 93.729 133.493C92.2908 136.22 92.4724 139.717 94.1721 142.283C95.6104 144.45 97.9566 145.86 100.39 146.776C107.138 149.313 114.809 148.455 121.506 145.787C125.356 144.253 129.053 142.079 131.646 138.852C134.24 135.624 135.591 131.211 134.472 127.219C133.687 124.435 131.792 122.072 129.554 120.255C127.31 118.437 124.717 117.107 122.138 115.82C117.692 113.602 113.036 111.407 108.068 111.32" fill="#3F4553"/>
<path d="M130.971 161.251H109.586C102.838 161.251 97.3682 155.777 97.3682 149.023C97.3682 142.269 102.838 136.794 109.586 136.794H126.533C128.988 136.794 130.978 138.786 130.978 141.244V161.251H130.971Z" fill="#8E97FD"/>
<path d="M134.022 213.843H119.792C114.831 213.843 110.806 209.815 110.806 204.85V136.787H125.036C129.997 136.787 134.022 140.815 134.022 145.78V213.843Z" fill="#8E97FD"/>
<path d="M136.535 75.878C138.467 75.42 140.646 75.7689 142.361 76.9467C143.203 77.5356 143.944 78.2989 144.416 79.2077C144.699 79.6366 144.845 80.131 145.026 80.5963C145.164 81.0761 145.259 81.5778 145.339 82.0576C145.099 81.6141 144.946 81.1488 144.699 80.7272C144.445 80.3128 144.242 79.8766 143.937 79.5058C143.407 78.7206 142.716 78.0663 141.946 77.5356C141.184 76.9976 140.312 76.6123 139.404 76.3433C138.489 76.0961 137.53 75.9216 136.535 75.878Z" fill="white"/>
<path d="M168.874 99.8184C170.907 99.782 173.014 100.538 174.554 101.999C174.946 102.356 175.258 102.792 175.571 103.214C175.818 103.686 176.108 104.13 176.246 104.638C176.45 105.126 176.515 105.649 176.595 106.158C176.646 106.674 176.624 107.19 176.61 107.692C176.384 106.696 176.159 105.722 175.723 104.849C175.324 103.962 174.757 103.17 174.053 102.516C173.363 101.847 172.549 101.301 171.677 100.858C170.784 100.436 169.854 100.066 168.874 99.8184Z" fill="white"/>
<path d="M156.634 89.146C157.084 89.2114 157.513 89.3714 157.927 89.5749C158.341 89.7785 158.719 90.0475 159.053 90.3601C159.387 90.68 159.663 91.0726 159.852 91.4942C160.048 91.9159 160.121 92.3885 160.106 92.8392C159.961 92.4103 159.837 91.9886 159.598 91.6251C159.365 91.2616 159.111 90.9199 158.791 90.6218C158.174 90.0257 157.433 89.5531 156.634 89.146Z" fill="white"/>
<path d="M167.689 120.691C168.605 117.361 168.307 113.596 166.375 110.731C164.443 107.867 160.738 106.136 157.397 107.009C158.421 104.602 156.939 101.731 154.774 100.255C152.617 98.7791 149.944 98.3211 147.387 97.7395C139.876 96.031 132.678 92.9412 126.264 88.6736C123.017 86.5144 122.479 87.0015 120.947 83.5191C120.031 84.8641 118.237 87.0524 118.186 88.7173C115.288 86.0709 109.477 85.7947 107.501 88.7463C105.518 91.698 105.257 95.6239 106.426 98.9827C107.596 102.341 110.08 105.148 113.036 107.118L113.399 105.708C113.182 113.159 117.489 120.313 123.598 124.581C129.707 128.848 137.377 130.462 144.816 130.244C151.68 130.041 158.406 128.376 164.958 126.296C166.171 124.573 167.137 122.705 167.689 120.691Z" fill="#3F4553"/>
<path d="M127.419 145.78V205.41H115.797V155.115H112.608C109.245 155.115 106.521 152.389 106.521 149.023C106.521 145.657 109.245 142.93 112.608 142.93H124.571C126.148 142.93 127.419 144.202 127.419 145.78Z" stroke="#8C96FF" stroke-miterlimit="10"/>
<path d="M139.593 96.438C139.106 92.6284 141.518 89.1824 144.975 88.7389C148.44 88.2954 151.644 91.0145 152.138 94.824C152.624 98.6335 150.213 102.08 146.755 102.523C143.29 102.967 140.087 100.24 139.593 96.438Z" fill="#8E97FD"/>
<path d="M139.593 96.4398C140.08 100.249 143.29 102.976 146.755 102.525C148.193 102.343 149.443 101.631 150.387 100.606C146.087 97.8429 145.331 90.9872 145.193 88.7262C145.121 88.7335 145.055 88.7335 144.983 88.7407C141.518 89.1842 139.106 92.6302 139.593 96.4398Z" fill="#8E97FD"/>
<path d="M130.361 112.178L132.801 123.185L141.358 125.628C141.358 125.628 144.416 122.567 144.416 121.956C144.416 121.345 140.138 109.728 140.138 109.728L130.361 112.178Z" fill="#FDBCA0"/>
<path d="M140.13 109.735L130.353 112.178L131.189 115.936C132.939 116.693 134.915 117.252 137.167 117.529C138.394 117.681 139.658 117.449 140.733 116.823C141.285 116.504 141.801 116.111 142.295 115.697C141.22 112.694 140.13 109.735 140.13 109.735Z" fill="#DF8370"/>
<path d="M116.915 90.1639C116.915 90.1639 115.695 114.017 137.08 115.238C143.799 112.796 148.077 103.621 146.857 96.278C145.636 88.9425 137.69 76.7069 126.082 80.3783C119.973 82.8283 116.915 90.1639 116.915 90.1639Z" fill="#FDBCA0"/>
<path d="M184.738 117.689L200.275 98.6773C200.893 97.9212 201.234 96.9761 201.234 95.9946V90.8329C201.234 90.4403 201.488 90.084 201.859 89.9605C202.454 89.7642 203.064 90.2076 203.064 90.8329V94.4534L208.563 84.6678L215.892 84.0571L206.115 101.178L191.45 126.864L184.738 117.689Z" fill="#FDBCA0"/>
<path d="M253.17 100.56L278.834 109.124L286.729 102.465C289.686 99.9713 294.022 99.7314 297.095 102.08C298.875 103.439 299.812 105.351 297.77 107.903C292.882 114.017 278.826 120.742 278.826 120.742L250.105 114.628L253.17 100.56Z" fill="#FDBCA0"/>
<path opacity="0.5" d="M250.12 114.628L264.379 117.667C265.294 112.527 264.582 107.336 263.921 104.152L253.178 100.567L250.12 114.628Z" fill="#DF8370"/>
<path d="M174.351 144.595C174.351 144.595 206.522 108.819 220.912 96.6051C223.309 94.5695 226.418 93.5807 229.556 93.8352C240.176 94.6931 262.338 98.728 262.338 98.728C262.338 98.728 266.616 114.628 258.669 123.803C253.781 123.192 231.786 118.91 231.786 118.91L187.179 167.83L174.351 144.595Z" fill="#739BE0"/>
<path d="M259.89 131.749L280.664 154.984L297.988 157.958C301.206 158.51 303.226 161.913 301.947 164.922C301.119 166.864 299.136 169.481 294.72 168.441C284.332 165.998 274.555 162.938 274.555 162.938L250.112 143.367L259.89 131.749Z" fill="#FDBCA0"/>
<path opacity="0.5" d="M272.688 146.064L259.89 131.749L250.112 143.367L267.197 157.049C270.015 154.134 272.405 150.419 272.688 146.064Z" fill="#DF8370"/>
<path opacity="0.2" d="M220.774 103.679L175.861 147.321L187.186 167.83L231.793 118.91C231.793 118.91 253.788 123.192 258.676 123.803C259.185 123.221 259.635 122.603 260.049 121.971C252.059 115.435 242.522 107.932 235.418 102.69C230.943 99.3968 224.754 99.8112 220.774 103.679Z" fill="#739BE0"/>
<path d="M156.634 164.159C156.634 164.159 167.632 180.059 183.518 178.227C198.35 176.511 214.774 155.079 226.338 136.816C227.522 134.941 230.173 134.73 231.648 136.38C240.742 146.58 256.839 161.716 256.839 161.716C256.839 161.716 272.115 154.381 272.115 142.756C267.902 137.696 250.323 119.55 239.812 108.768C235.28 104.115 227.943 103.715 222.924 107.838L173.733 148.259L156.634 164.159Z" fill="#97B8FF"/>
<g opacity="0.5">
<path opacity="0.5" d="M183.518 178.227C198.35 176.511 214.774 155.079 226.338 136.816C227.522 134.94 230.173 134.73 231.648 136.38C240.742 146.58 256.839 161.716 256.839 161.716C256.839 161.716 260.398 160 264.081 156.925C255.895 148.768 247.222 141.105 238.113 134.003C235.164 131.705 231.662 129.335 227.994 130.062C224.805 130.702 222.561 133.486 220.607 136.089C216.379 141.716 212.159 147.343 207.931 152.97C203.319 159.114 198.445 165.475 191.537 168.826C185.646 171.676 178.578 171.996 172.455 169.692C167.704 167.903 163.578 164.544 160.782 160.313L156.634 164.166C156.634 164.159 167.632 180.059 183.518 178.227Z" fill="#97B8FF"/>
</g>
<path d="M215.9 161.251H237.284C244.033 161.251 249.502 155.777 249.502 149.023C249.502 142.269 244.033 136.794 237.284 136.794H220.338C217.883 136.794 215.892 138.786 215.892 141.244V161.251H215.9Z" fill="#8E97FD"/>
<path d="M212.842 213.843H227.071C232.033 213.843 236.057 209.815 236.057 204.85V136.787H221.827C216.866 136.787 212.842 140.815 212.842 145.78V213.843Z" fill="#8E97FD"/>
<path d="M218.922 145.78V205.41H230.544V155.115H233.733C237.096 155.115 239.82 152.389 239.82 149.023C239.82 145.657 237.096 142.93 233.733 142.93H221.769C220.193 142.93 218.922 144.202 218.922 145.78Z" stroke="#8C96FF" stroke-miterlimit="10"/>
<path d="M122.414 101.171L112.027 104.232C112.027 104.232 115.085 114.628 130.361 121.353L132.191 120.742C132.191 120.742 140.741 125.533 142.884 117.325C146.341 116.118 150.692 115.115 154.099 114.424C157.622 113.712 161.276 114.272 164.421 115.995L176.639 122.705C177.794 123.337 179.239 123.068 180.089 122.058L188.406 112.178L196.89 118.568L185.13 137.303C184.367 138.525 182.791 138.954 181.513 138.292L170.079 132.36L176.798 142.756C176.798 142.756 176.188 161.716 156.634 164.159C149.915 157.434 141.358 148.87 136.47 145.199C131.581 141.527 115.695 131.131 111.417 126.849C107.138 122.567 96.1407 107.278 95.5305 99.3315C95.5305 95.0494 119.973 91.9959 119.973 91.9959L122.414 101.171Z" fill="#FFFFFE"/>
<path d="M118.506 125.031C105.736 116.271 100.325 104.828 98.0365 96.9541C96.4966 97.6884 95.5305 98.4881 95.5305 99.3387C96.1407 107.292 107.138 122.574 111.417 126.856C115.695 131.138 131.581 141.534 136.47 145.206C137.341 145.86 138.336 146.674 139.404 147.605C136.796 142.065 131.058 133.646 118.506 125.031Z" fill="#F2F2F2"/>
<path d="M158.414 124.464C158.922 124.319 159.445 124.239 159.975 124.195C160.506 124.144 161.036 124.152 161.573 124.203C162.634 124.304 163.709 124.573 164.675 125.097C165.648 125.591 166.506 126.347 167.13 127.241C167.479 127.67 167.704 128.172 167.958 128.652C168.198 129.139 168.329 129.67 168.518 130.179L168.467 130.077C169.062 130.884 169.614 131.727 170.188 132.549C170.762 133.377 171.3 134.221 171.837 135.079C171.162 134.33 170.493 133.574 169.861 132.803C169.229 132.025 168.568 131.262 167.958 130.469L167.936 130.448L167.9 130.368C167.704 129.902 167.551 129.415 167.326 128.957C167.079 128.521 166.876 128.056 166.549 127.67C166.28 127.249 165.917 126.907 165.568 126.544C165.176 126.238 164.806 125.904 164.355 125.671C163.491 125.169 162.532 124.806 161.515 124.632C160.506 124.457 159.46 124.377 158.414 124.464Z" fill="#97B8FF"/>
<path d="M134.392 97.9938C134.93 98.8444 135.395 100.56 136.753 100.291C137.218 100.197 137.436 99.8405 137.792 99.5642C139.041 98.59 139.695 100.088 138.809 100.909C138.351 101.331 137.712 101.433 137.123 101.498C136.782 101.534 136.775 102.08 137.123 102.043C137.98 101.949 138.881 101.752 139.433 101.025C139.876 100.444 139.964 99.6442 139.477 99.0625C139.026 98.5391 138.358 98.4519 137.792 98.8299C137.261 99.1789 136.964 100.008 136.099 99.6369C135.482 99.3752 135.191 98.2338 134.864 97.7176C134.675 97.4268 134.203 97.6958 134.392 97.9938Z" fill="#444359"/>
<path d="M131.508 106.013C134.349 108.397 138.3 107.881 140.399 104.813C140.596 104.522 140.123 104.246 139.927 104.537C138.046 107.292 134.458 107.779 131.893 105.627C131.625 105.402 131.24 105.787 131.508 106.013Z" fill="#444359"/>
<path d="M124.92 96.3798C125.581 94.6786 127.252 93.7407 129.053 94.0606C129.395 94.1188 129.54 93.5953 129.198 93.5372C127.092 93.1664 125.167 94.2424 124.397 96.2416C124.266 96.5615 124.797 96.6997 124.92 96.3798Z" fill="#444359"/>
<path d="M126.656 101.214L125.211 100.378L126.874 100.524L126.656 101.214Z" fill="#444359"/>
<path d="M127.005 101.418C127.775 99.3387 129.896 98.379 131.988 99.0842C132.322 99.1933 132.467 98.6698 132.133 98.5608C129.751 97.7611 127.346 98.9315 126.482 101.28C126.358 101.6 126.881 101.745 127.005 101.418Z" fill="#444359"/>
<path d="M127.949 99.215L127.303 97.3175L128.581 98.8587L127.949 99.215Z" fill="#444359"/>
<path d="M130.935 98.6261L131.378 97.3175L131.661 98.677L130.935 98.6261Z" fill="#444359"/>
<path d="M141.932 94.1624L142.949 92.832L142.593 94.4678L141.932 94.1624Z" fill="#444359"/>
<path d="M142.709 94.3515C140.407 93.45 137.944 94.4606 136.963 96.7288C136.825 97.0487 137.298 97.325 137.436 97.0051C138.329 94.9404 140.465 94.0534 142.571 94.8749C142.891 95.0058 143.029 94.4751 142.709 94.3515Z" fill="#444359"/>
<path d="M139.557 94.315L139.273 92.3303L140.247 94.0824L139.557 94.315Z" fill="#444359"/>
<path d="M137.356 96.4743L136.535 95.3547L137.806 95.9072L137.356 96.4743Z" fill="#444359"/>
<path d="M202.12 100.567L209.348 77.8847C209.537 77.2958 210.074 76.8887 210.699 76.8742L223.665 76.5325C224.66 76.5034 225.386 77.4631 225.096 78.4154L217.89 101.978C217.694 102.61 217.098 103.032 216.437 103.01L203.45 102.479C202.491 102.421 201.83 101.483 202.12 100.567Z" fill="#3F4553"/>
<path d="M200.9 100.568L208.127 77.8848C208.316 77.2959 208.854 76.8888 209.478 76.8742L222.444 76.5326C223.44 76.5035 224.166 77.4631 223.875 78.4155L216.67 101.978C216.474 102.61 215.878 103.032 215.217 103.01L202.229 102.48C201.263 102.421 200.609 101.484 200.9 100.568Z" fill="#4E5567"/>
<path d="M221.522 80.2257L216.691 96.0091L216.001 98.2774L215.675 99.3461C215.558 99.7242 215.268 100.008 214.919 100.124C214.781 100.168 214.643 100.189 214.498 100.182L211.788 100.073L203.958 99.7532C203.173 99.7169 202.643 98.9535 202.876 98.212L206.617 86.4635L208.033 82.0214L208.745 79.7968C208.774 79.7023 208.817 79.6078 208.876 79.5278C209.079 79.2006 209.435 78.9898 209.834 78.9753L210.212 78.968L220.36 78.699C221.166 78.6772 221.754 79.4551 221.522 80.2257Z" fill="#F2EDE4"/>
<g opacity="0.35">
<path opacity="0.35" d="M216.691 96.0091L216.001 98.2774L208.876 79.5278C209.079 79.2006 209.435 78.9898 209.834 78.9753L210.212 78.968L216.691 96.0091Z" fill="white"/>
</g>
<g opacity="0.35">
<path opacity="0.35" d="M214.919 100.124C214.781 100.168 214.643 100.189 214.498 100.182L211.788 100.073L206.617 86.4635L208.033 82.0214L214.919 100.124Z" fill="white"/>
</g>
<path d="M119.748 104.69C122.269 98.9608 122.937 92.4322 121.637 86.3035C122.545 89.2188 125.719 90.8691 128.748 91.2545C131.777 91.6398 134.85 91.1018 137.9 91.2545C140.951 91.4071 144.249 92.4831 145.789 95.1221C146.072 95.602 146.385 96.1981 146.937 96.2417C147.627 96.2999 148.033 95.4857 148.179 94.8095C149.305 89.7423 147.227 84.1806 143.268 80.8218C139.31 77.4631 133.702 76.2926 128.639 77.434C123.576 78.5754 119.116 81.9051 116.254 86.2308C114.46 88.9426 113.247 92.076 113.065 95.3257C112.884 98.5682 113.784 101.92 115.811 104.457C116.312 105.082 116.93 105.686 117.714 105.86C118.499 106.035 119.457 105.591 119.581 104.791" fill="#3F4553"/>
<path d="M119.679 111.997C123.437 111.23 125.815 107.33 124.991 103.286C124.167 99.2413 120.453 96.5846 116.695 97.3515C112.938 98.1184 110.559 102.019 111.383 106.063C112.207 110.107 115.922 112.764 119.679 111.997Z" fill="#8E97FD"/>
<path d="M115.441 101.672C111.315 89.0806 116.479 84.3332 116.712 84.0279L116.864 84.0133H116.901L117.053 84.0061C116.879 84.246 114.801 89.953 118.194 100.306L115.441 101.672Z" fill="#8E97FD"/>
<path d="M124.15 108.71C113.472 111.545 111.714 105.824 111.736 101.694C111.228 103.025 111.082 104.537 111.395 106.071C112.223 110.12 115.934 112.774 119.69 112.01C121.629 111.603 123.198 110.367 124.15 108.71Z" fill="#8E97FD"/>
</g>
<defs>
<filter id="filter0_d_1_3677" x="0.194824" y="0" width="340.219" height="250.691" filterUnits="userSpaceOnUse" color-interpolation-filters="sRGB">
<feFlood flood-opacity="0" result="BackgroundImageFix"/>
<feColorMatrix in="SourceAlpha" type="matrix" values="0 0 0 0 0 0 0 0 0 0 0 0 0 0 0 0 0 0 127 0" result="hardAlpha"/>
<feOffset dy="4"/>
<feGaussianBlur stdDeviation="2"/>
<feComposite in2="hardAlpha" operator="out"/>
<feColorMatrix type="matrix" values="0 0 0 0 0 0 0 0 0 0 0 0 0 0 0 0 0 0 0.25 0"/>
<feBlend mode="normal" in2="BackgroundImageFix" result="effect1_dropShadow_1_3677"/>
<feBlend mode="normal" in="SourceGraphic" in2="effect1_dropShadow_1_3677" result="shape"/>
</filter>
</defs>
</svg>
